# xmcd
#
# Track frame offsets: 
#        150
#        19592
#        40124
#        63967
#        82424
#        106099
#        127461
#        147105
#        165386
#        188631
#        208965
#        228283
#
# Disc length: 3297 seconds
#
# Revision: 2
# Processed by: cddbd v1.5.2PL0 Copyright (c) Steve Scherf et al.
# Submitted via: ExactAudioCopy v1.0b3
#
DISCID=a30cdf0c
DTITLE=Mỹ Tâm - Trở Lại
DYEAR=2008
DGENRE=Blues
TTITLE0=My Tam - Nhu em doi anh (My Tam)
TTITLE1=My Tam - Con mua di vang (Le Quang)
TTITLE2=My Tam - Khi tinh yeu tro lai (My Tam)
TTITLE3=My Tam - Mua va noi nho (Ho Hoai Anh)
TTITLE4=My Tam - Hurt so much (Terry Lewis)
TTITLE5=My Tam - Vi em da biet (Bao Chan)
TTITLE6=My Tam - Chi co the la tinh yeu (Phuong Uyen)
TTITLE7=My Tam - Va em co anh (Quoc Bao)
TTITLE8=My Tam - Co gai den tu hom qua (Tran Le Quynh)
TTITLE9=My Tam - Mot ngay mua dong (Bao Chan)
TTITLE10=My Tam - Hoi am ngay xua (Nguyen Hong Thuan)
TTITLE11=My Tam - Van hat loi tinh yeu (Duong Thu)
EXTD=
EXTT0=
EXTT1=
EXTT2=
EXTT3=
EXTT4=
EXTT5=
EXTT6=
EXTT7=
EXTT8=
EXTT9=
EXTT10=
EXTT11=
PLAYORDER=
